<svg width="48" height="48" viewBox="0 0 48 48" fill="none" xmlns="http://www.w3.org/2000/svg">
<path d="M22.5 15V34.5C22.5 34.8978 22.342 35.2794 22.0607 35.5607C21.7794 35.842 21.3978 36 21 36H18V39H21C21.3978 39 21.7794 39.158 22.0607 39.4393C22.342 39.7206 22.5 40.1022 22.5 40.5C22.5 40.8978 22.342 41.2794 22.0607 41.5607C21.7794 41.842 21.3978 42 21 42H12C11.6022 42 11.2206 41.842 10.9393 41.5607C10.658 41.2794 10.5 40.8978 10.5 40.5C10.5 40.1022 10.658 39.7206 10.9393 39.4393C11.2206 39.158 11.6022 39 12 39H15V36H6C4.80694 35.9986 3.66314 35.5241 2.81953 34.6805C1.97591 33.8369 1.50136 32.6931 1.5 31.5V18C1.50136 16.8069 1.97591 15.6631 2.81953 14.8195C3.66314 13.9759 4.80694 13.5014 6 13.5H21C21.3978 13.5 21.7794 13.658 22.0607 13.9393C22.342 14.2206 22.5 14.6022 22.5 15ZM46.5 9V39C46.4991 39.7954 46.1827 40.5579 45.6203 41.1203C45.0579 41.6827 44.2954 41.9991 43.5 42H28.5C27.7046 41.9991 26.9421 41.6827 26.3797 41.1203C25.8173 40.5579 25.5009 39.7954 25.5 39V9C25.5009 8.20463 25.8173 7.4421 26.3797 6.87968C26.9421 6.31727 27.7046 6.00091 28.5 6H43.5C44.2954 6.00091 45.0579 6.31727 45.6203 6.87968C46.1827 7.4421 46.4991 8.20463 46.5 9ZM38.25 33.75C38.25 33.305 38.118 32.87 37.8708 32.5C37.6236 32.13 37.2722 31.8416 36.861 31.6713C36.4499 31.501 35.9975 31.4564 35.561 31.5432C35.1246 31.63 34.7237 31.8443 34.409 32.159C34.0943 32.4737 33.8801 32.8746 33.7932 33.311C33.7064 33.7475 33.751 34.1999 33.9213 34.611C34.0916 35.0222 34.38 35.3736 34.75 35.6208C35.12 35.868 35.555 36 36 36C36.5965 35.9993 37.1684 35.7621 37.5903 35.3403C38.0121 34.9184 38.2493 34.3465 38.25 33.75ZM42 19.5C42 19.1022 41.842 18.7206 41.5607 18.4393C41.2794 18.158 40.8978 18 40.5 18H31.5C31.1022 18 30.7206 18.158 30.4393 18.4393C30.158 18.7206 30 19.1022 30 19.5C30 19.8978 30.158 20.2794 30.4393 20.5607C30.7206 20.842 31.1022 21 31.5 21H40.5C40.8978 21 41.2794 20.842 41.5607 20.5607C41.842 20.2794 42 19.8978 42 19.5ZM42 13.5C42 13.1022 41.842 12.7206 41.5607 12.4393C41.2794 12.158 40.8978 12 40.5 12H31.5C31.1022 12 30.7206 12.158 30.4393 12.4393C30.158 12.7206 30 13.1022 30 13.5C30 13.8978 30.158 14.2794 30.4393 14.5607C30.7206 14.842 31.1022 15 31.5 15H40.5C40.8978 15 41.2794 14.842 41.5607 14.5607C41.842 14.2794 42 13.8978 42 13.5Z" fill="#335CAB"/>
</svg>
