<svg width="48" height="48" viewBox="0 0 48 48" fill="none" xmlns="http://www.w3.org/2000/svg">
<path d="M27 40.5H21C20.6022 40.5 20.2206 40.658 19.9393 40.9393C19.658 41.2206 19.5 41.6022 19.5 42C19.5 42.3978 19.658 42.7794 19.9393 43.0607C20.2206 43.342 20.6022 43.5 21 43.5H27C27.3978 43.5 27.7794 43.342 28.0607 43.0607C28.342 42.7794 28.5 42.3978 28.5 42C28.5 41.6022 28.342 41.2206 28.0607 40.9393C27.7794 40.658 27.3978 40.5 27 40.5Z" fill="#335CAB"/>
<path d="M41.1805 26.9735L35.5111 20.1702C35.3298 17.9294 34.8259 15.7264 34.0148 13.6296C31.8366 7.9649 27.9855 4.25482 25.8838 2.54736C25.3509 2.11837 24.6879 1.88343 24.0037 1.88115C23.3196 1.87887 22.655 2.10939 22.1192 2.53481C19.99 4.24053 16.0895 7.94787 13.8893 13.6134C13.0511 15.7577 12.5393 18.0155 12.3711 20.3116L6.81962 26.9735C6.52718 27.3266 6.31901 27.7417 6.21089 28.1872C6.10276 28.6327 6.09754 29.097 6.1956 29.5449L8.51372 39.976C8.62357 40.4738 8.85853 40.9353 9.1964 41.3169C9.53428 41.6985 9.96389 41.9877 10.4446 42.157C10.9254 42.3264 11.4414 42.3703 11.9438 42.2847C12.4463 42.1992 12.9186 41.9868 13.3162 41.6679L18.5261 37.5H29.474L34.6837 41.6678C35.2132 42.0941 35.8724 42.3267 36.5521 42.3273C36.8936 42.327 37.2326 42.2687 37.5546 42.1549C38.036 41.9871 38.4663 41.6987 38.8045 41.3173C39.1427 40.9359 39.3774 40.4741 39.4864 39.9761L41.8045 29.5451C41.9025 29.0972 41.8973 28.6329 41.7892 28.1873C41.6811 27.7417 41.4729 27.3267 41.1805 26.9735ZM11.4423 39.3253L9.12418 28.894L12.4854 24.8605C12.9115 28.3651 14.1078 31.9516 16.0742 35.6198L11.4423 39.3253ZM24 20.25C23.555 20.25 23.12 20.118 22.75 19.8708C22.38 19.6236 22.0916 19.2722 21.9213 18.861C21.751 18.4499 21.7065 17.9975 21.7933 17.561C21.8801 17.1246 22.0944 16.7237 22.409 16.409C22.7237 16.0943 23.1246 15.88 23.5611 15.7932C23.9975 15.7064 24.4499 15.751 24.8611 15.9213C25.2722 16.0916 25.6236 16.3799 25.8708 16.75C26.1181 17.12 26.25 17.555 26.25 18C26.25 18.5967 26.013 19.169 25.591 19.591C25.1691 20.0129 24.5968 20.25 24 20.25ZM36.5578 39.3253L31.9172 35.6128C33.8585 31.9188 35.03 28.3015 35.4316 24.7609L38.8759 28.894L36.5578 39.3253Z" fill="#335CAB"/>
</svg>
