<svg width="48" height="48" viewBox="0 0 48 48" fill="none" xmlns="http://www.w3.org/2000/svg">
<path d="M29.508 20C31.44 20 33.008 21.568 33.008 23.5V30H33V32H15V26H15.004V23.5C15.004 21.568 16.57 20 18.504 20H29.508Z" fill="#335CAB"/>
<path d="M44 23.5C44 22.5717 43.6313 21.6815 42.9749 21.0251C42.3185 20.3687 41.4283 20 40.5 20H33.75C34.536 20.95 35.008 22.17 35.008 23.5V26H35V32H42.5C42.8978 32 43.2794 31.842 43.5607 31.5607C43.842 31.2794 44 30.8978 44 30.5V23.5Z" fill="#335CAB"/>
<path d="M13 30H13.004V23.5L13.022 23.06C13.112 21.9 13.562 20.844 14.262 20H7.5L7.212 20.012C6.3366 20.0843 5.52038 20.4831 4.92536 21.1292C4.33034 21.7754 4.00003 22.6216 4 23.5V30.5C4 31.328 4.672 32 5.5 32H13V30Z" fill="#335CAB"/>
<path d="M24 6C25.5913 6 27.1174 6.63214 28.2426 7.75736C29.3679 8.88258 30 10.4087 30 12C30 13.5913 29.3679 15.1174 28.2426 16.2426C27.1174 17.3679 25.5913 18 24 18C22.4087 18 20.8826 17.3679 19.7574 16.2426C18.6321 15.1174 18 13.5913 18 12C18 10.4087 18.6321 8.88258 19.7574 7.75736C20.8826 6.63214 22.4087 6 24 6Z" fill="#335CAB"/>
<path d="M37 8C38.3261 8 39.5979 8.52678 40.5355 9.46447C41.4732 10.4021 42 11.6739 42 13C42 14.3261 41.4732 15.5979 40.5355 16.5355C39.5979 17.4732 38.3261 18 37 18C35.6739 18 34.4021 17.4732 33.4645 16.5355C32.5268 15.5979 32 14.3261 32 13C32 11.6739 32.5268 10.4021 33.4645 9.46447C34.4021 8.52678 35.6739 8 37 8Z" fill="#335CAB"/>
<path d="M11 8C12.3261 8 13.5979 8.52678 14.5355 9.46447C15.4732 10.4021 16 11.6739 16 13C16 14.3261 15.4732 15.5979 14.5355 16.5355C13.5979 17.4732 12.3261 18 11 18C9.67392 18 8.40215 17.4732 7.46447 16.5355C6.52678 15.5979 6 14.3261 6 13C6 11.6739 6.52678 10.4021 7.46447 9.46447C8.40215 8.52678 9.67392 8 11 8Z" fill="#335CAB"/>
<path d="M4 35.5C4 35.1022 4.15804 34.7206 4.43934 34.4393C4.72064 34.158 5.10218 34 5.5 34H42.5C42.8978 34 43.2794 34.158 43.5607 34.4393C43.842 34.7206 44 35.1022 44 35.5V36.5C44 38.4891 43.2098 40.3968 41.8033 41.8033C40.3968 43.2098 38.4891 44 36.5 44H11.5C9.51088 44 7.60322 43.2098 6.1967 41.8033C4.79018 40.3968 4 38.4891 4 36.5V35.5Z" fill="#335CAB"/>
</svg>
