<svg width="48" height="48" viewBox="0 0 48 48" fill="none" xmlns="http://www.w3.org/2000/svg">
<path d="M24.0003 4.49991C20.1435 4.49991 16.3734 5.64356 13.1666 7.78625C9.95987 9.92894 7.46051 12.9744 5.9846 16.5376C4.50869 20.1007 4.12253 24.0215 4.87494 27.8042C5.62735 31.5868 7.48455 35.0614 10.2117 37.7885C12.9388 40.5156 16.4134 42.3728 20.196 43.1252C23.9786 43.8776 27.8994 43.4915 31.4626 42.0156C35.0257 40.5396 38.0712 38.0403 40.2139 34.8335C42.3566 31.6268 43.5003 27.8566 43.5003 23.9999C43.4944 18.83 41.4381 13.8735 37.7824 10.2178C34.1267 6.5621 29.1702 4.50576 24.0003 4.49991ZM23.6254 13.5C24.0704 13.5 24.5054 13.6319 24.8754 13.8792C25.2454 14.1264 25.5338 14.4778 25.7041 14.8889C25.8744 15.3001 25.9189 15.7525 25.8321 16.1889C25.7453 16.6254 25.531 17.0263 25.2163 17.341C24.9017 17.6556 24.5008 17.8699 24.0643 17.9567C23.6278 18.0436 23.1754 17.999 22.7643 17.8287C22.3532 17.6584 22.0018 17.37 21.7545 17C21.5073 16.63 21.3754 16.195 21.3754 15.75C21.3754 15.1532 21.6124 14.5809 22.0344 14.159C22.4563 13.737 23.0286 13.5 23.6254 13.5ZM25.5003 34.4999H24.0003C23.6024 34.4999 23.2209 34.3418 22.9396 34.0605C22.6583 33.7792 22.5003 33.3977 22.5003 32.9999V23.9999C22.1024 23.9999 21.7209 23.8419 21.4396 23.5606C21.1583 23.2793 21.0003 22.8977 21.0003 22.4999C21.0003 22.1021 21.1583 21.7206 21.4396 21.4392C21.7209 21.1579 22.1024 20.9999 22.5003 20.9999H24.0003C24.3981 20.9999 24.7796 21.158 25.0609 21.4393C25.3422 21.7206 25.5002 22.1021 25.5003 22.4999V31.4999C25.8981 31.4999 26.2796 31.6579 26.5609 31.9392C26.8422 32.2206 27.0003 32.6021 27.0003 32.9999C27.0003 33.3977 26.8422 33.7793 26.5609 34.0606C26.2796 34.3419 25.8981 34.4999 25.5003 34.4999Z" fill="#335CAB"/>
</svg>
