<svg width="48" height="48" viewBox="0 0 48 48" fill="none" xmlns="http://www.w3.org/2000/svg">
<path d="M43.5 12H39V10.5C38.9991 9.70463 38.6827 8.9421 38.1203 8.37968C37.5579 7.81727 36.7954 7.50091 36 7.5H12C11.2046 7.50091 10.4421 7.81727 9.87968 8.37968C9.31727 8.9421 9.00091 9.70463 9 10.5V12H4.4762C3.68083 12.0009 2.91829 12.3173 2.35588 12.8797C1.79347 13.4421 1.47711 14.2046 1.4762 15V18C1.47847 19.9884 2.26938 21.8948 3.67541 23.3008C5.08144 24.7068 6.98777 25.4977 8.9762 25.5H9.73444C11.5424 31.1131 16.5112 35.315 22.5 35.9218V40.5H18C17.6022 40.5 17.2206 40.658 16.9393 40.9393C16.658 41.2206 16.5 41.6022 16.5 42C16.5 42.3978 16.658 42.7794 16.9393 43.0607C17.2206 43.342 17.6022 43.5 18 43.5H30C30.3978 43.5 30.7794 43.342 31.0607 43.0607C31.342 42.7794 31.5 42.3978 31.5 42C31.5 41.6022 31.342 41.2206 31.0607 40.9393C30.7794 40.658 30.3978 40.5 30 40.5H25.5V35.9262C28.4212 35.6307 31.1917 34.4858 33.4692 32.6328C35.7467 30.7798 37.4313 28.3 38.3147 25.5H39C40.9884 25.4977 42.8948 24.7068 44.3008 23.3008C45.7068 21.8948 46.4977 19.9884 46.5 18V15C46.4991 14.2046 46.1827 13.4421 45.6203 12.8797C45.0579 12.3173 44.2954 12.0009 43.5 12ZM8.9762 22.5C7.78314 22.4986 6.63934 22.0241 5.79572 21.1805C4.95211 20.3369 4.47756 19.1931 4.4762 18V15H9V20.8304C9.0008 21.3883 9.03203 21.9456 9.09356 22.5H8.9762ZM43.5 18C43.4986 19.1931 43.0241 20.3369 42.1805 21.1805C41.3369 22.0241 40.1931 22.4986 39 22.5H38.9265C38.9753 22.0048 38.9998 21.5048 39 21V15H43.5V18Z" fill="#335CAB"/>
<path d="M24.2412 24.4307L26.9994 26.1782C27.352 26.4015 27.7897 26.0693 27.6851 25.6578L26.8882 22.523C26.8658 22.4356 26.8684 22.3438 26.8959 22.2579C26.9233 22.172 26.9745 22.0957 27.0434 22.0376L29.5167 19.9789C29.8417 19.7084 29.674 19.1691 29.2565 19.142L26.0264 18.9323C25.9394 18.9261 25.856 18.8953 25.7858 18.8435C25.7156 18.7917 25.6616 18.721 25.63 18.6397L24.4254 15.6061C24.3926 15.5197 24.3344 15.4454 24.2584 15.393C24.1824 15.3406 24.0923 15.3125 24 15.3125C23.9077 15.3125 23.8176 15.3406 23.7416 15.393C23.6656 15.4454 23.6074 15.5197 23.5747 15.6061L22.37 18.6397C22.3384 18.721 22.2844 18.7917 22.2142 18.8435C22.1441 18.8953 22.0606 18.9261 21.9736 18.9323L18.7435 19.142C18.326 19.1691 18.1583 19.7084 18.4833 19.9789L20.9566 22.0376C21.0256 22.0957 21.0767 22.172 21.1041 22.2579C21.1316 22.3438 21.1342 22.4356 21.1118 22.523L20.3728 25.4301C20.2472 25.924 20.7725 26.3227 21.1956 26.0546L23.7588 24.4307C23.8309 24.3848 23.9145 24.3604 24 24.3604C24.0855 24.3604 24.1691 24.3848 24.2412 24.4307Z" fill="white"/>
</svg>
