<svg width="48" height="48" viewBox="0 0 48 48" fill="none" xmlns="http://www.w3.org/2000/svg">
<path d="M29.1124 30.8166H40.1183C40.6281 30.8166 41.0414 30.4033 41.0414 29.8935V8.30769C41.0414 7.79789 40.6281 7.38461 40.1183 7.38461L7.88163 7.38461C7.37183 7.38461 6.95856 7.79789 6.95856 8.30769V29.8935C6.95856 30.4033 7.37183 30.8166 7.88163 30.8166H18.8876" stroke="#335CAB" stroke-width="2.76923" stroke-linecap="round"/>
<rect x="10.1539" y="10.1538" width="27.6923" height="17.5385" rx="1" fill="#335CAB"/>
<circle cx="24" cy="30.8166" r="1.70414" fill="#335CAB"/>
<path d="M1.84613 36.3551H46.1538" stroke="#335CAB" stroke-width="2.76923" stroke-linecap="round"/>
<path d="M20.1636 13.8771L23.4299 15.2287C23.775 15.3715 24 15.7082 24 16.0816V22.1033C24 22.7839 23.2885 23.2305 22.6756 22.9346L19.4093 21.3578C19.0903 21.2038 18.8876 20.8808 18.8876 20.5265V14.7301C18.8876 14.0723 19.5558 13.6256 20.1636 13.8771Z" fill="#335CAB" stroke="white" stroke-width="1.5" stroke-linecap="round"/>
<path d="M27.8364 13.8771L24.5701 15.2287C24.225 15.3715 24 15.7082 24 16.0816V22.1033C24 22.7839 24.7115 23.2305 25.3244 22.9346L28.5907 21.3578C28.9097 21.2038 29.1124 20.8808 29.1124 20.5265V14.7301C29.1124 14.0723 28.4442 13.6256 27.8364 13.8771Z" fill="#335CAB" stroke="white" stroke-width="1.5" stroke-linecap="round"/>
</svg>
