<svg width="48" height="48" viewBox="0 0 48 48" fill="none" xmlns="http://www.w3.org/2000/svg">
<path d="M14.208 9.48262C16.7921 9.48262 18.8868 7.38787 18.8868 4.80387C18.8868 2.21987 16.7921 0.125122 14.208 0.125122C11.624 0.125122 9.5293 2.21987 9.5293 4.80387C9.5293 7.38787 11.624 9.48262 14.208 9.48262Z" fill="#335CAB"/>
<path d="M25.1198 31.883C24.9879 30.8504 24.2402 30.0026 23.2324 29.7424L17.7975 28.3392L17.9188 26.6289C16.9917 26.4522 16.2107 25.8196 15.8426 24.9578L12.5294 17.1658L17.5792 23.5934C18.0166 24.15 18.7039 24.4531 19.4142 24.3969L23.7826 24.0494C23.7525 24.153 23.7356 24.2621 23.7356 24.3754C23.7356 25.0215 24.2593 25.5452 24.9053 25.5452C25.9938 25.5452 34.1342 25.5452 35.4575 25.5452C35.9866 25.5452 36.4498 25.1901 36.5872 24.6792L39.5572 13.6366C39.725 13.0127 39.3553 12.371 38.7314 12.2032C38.1075 12.0356 37.4658 12.405 37.298 13.029L34.5608 23.2056C33.4378 23.2056 30.1795 23.2056 29.0829 23.2056C29.5694 22.7792 29.8568 22.1383 29.8016 21.444C29.7088 20.277 28.689 19.4052 27.5204 19.499L20.211 20.0805L15.8633 14.5466L18.63 16.6108L18.7189 15.3587C18.8424 13.6176 17.5312 12.1058 15.7899 11.9823L10.4253 11.6015C8.58857 11.4712 7.02701 12.935 7.04099 14.7783L7.15995 30.4247C7.16485 31.0734 7.40339 31.6925 7.82224 32.1744H5.65755L3.37838 14.1775C3.26078 13.2484 2.41254 12.5901 1.48301 12.7082C0.553895 12.8259 -0.104018 13.6745 0.0136867 14.6036L2.48057 34.0832C2.58795 34.9306 3.30878 35.566 4.16297 35.566H10.287V42.5107L6.2587 45.7991C5.75824 46.2076 5.68363 46.9445 6.09226 47.445C6.50078 47.9455 7.23779 48.0199 7.73814 47.6114L10.2869 45.5307V46.7052C10.2869 47.3513 10.8107 47.875 11.4567 47.875C12.1027 47.875 12.6264 47.3513 12.6264 46.7052V45.5307L15.1752 47.6114C15.3925 47.7887 15.6542 47.8751 15.9143 47.8751C16.2534 47.875 16.59 47.7283 16.8212 47.445C17.2297 46.9445 17.1552 46.2076 16.6548 45.7991L12.6264 42.5107V35.566H18.2107C19.0579 35.566 19.7581 34.944 19.8842 34.1322L20.2917 34.2374L21.7504 45.6534C21.9285 47.048 23.2036 48.0323 24.5959 47.8542C25.9895 47.6762 26.9748 46.4021 26.7967 45.0087L25.1198 31.883Z" fill="#335CAB"/>
<path d="M46.3041 27.064H27.0417C26.1052 27.064 25.3459 27.8232 25.3459 28.7598C25.3459 29.6965 26.1051 30.4557 27.0417 30.4557H44.6083V44.4835H36.6272C35.6907 44.4835 34.9314 45.2427 34.9314 46.1793C34.9314 47.116 35.6906 47.8752 36.6272 47.8752H46.3041C47.2407 47.8752 48 47.116 48 46.1793V28.7597C48 27.8232 47.2408 27.064 46.3041 27.064Z" fill="#335CAB"/>
</svg>
