<svg width="48" height="48" viewBox="0 0 48 48" fill="none" xmlns="http://www.w3.org/2000/svg">
<path d="M40.5 13.5H10.5C10.1022 13.5 9.72064 13.342 9.43934 13.0607C9.15804 12.7794 9 12.3978 9 12C9 11.6022 9.15804 11.2206 9.43934 10.9393C9.72064 10.658 10.1022 10.5 10.5 10.5H36C36.3978 10.5 36.7794 10.342 37.0607 10.0607C37.342 9.77936 37.5 9.39782 37.5 9C37.5 8.60218 37.342 8.22064 37.0607 7.93934C36.7794 7.65804 36.3978 7.5 36 7.5H10.5C9.30694 7.50136 8.16314 7.97591 7.31953 8.81953C6.47591 9.66314 6.00136 10.8069 6 12V36C6.00136 37.1931 6.47591 38.3369 7.31953 39.1805C8.16314 40.0241 9.30694 40.4986 10.5 40.5H40.5C41.2954 40.4991 42.0579 40.1827 42.6203 39.6203C43.1827 39.0579 43.4991 38.2954 43.5 37.5V16.5C43.4991 15.7046 43.1827 14.9421 42.6203 14.3797C42.0579 13.8173 41.2954 13.5009 40.5 13.5ZM33.75 29.25C33.305 29.25 32.87 29.118 32.5 28.8708C32.13 28.6236 31.8416 28.2722 31.6713 27.861C31.501 27.4499 31.4564 26.9975 31.5432 26.561C31.63 26.1246 31.8443 25.7237 32.159 25.409C32.4737 25.0943 32.8746 24.88 33.311 24.7932C33.7475 24.7064 34.1999 24.751 34.611 24.9213C35.0222 25.0916 35.3736 25.38 35.6208 25.75C35.868 26.12 36 26.555 36 27C36 27.5967 35.7629 28.169 35.341 28.591C34.919 29.0129 34.3467 29.25 33.75 29.25Z" fill="#335CAB"/>
</svg>
