<svg width="48" height="48" viewBox="0 0 48 48" fill="none" xmlns="http://www.w3.org/2000/svg">
<path d="M41.9758 13.2683L39.6964 25.805C39.5083 26.8421 38.962 27.7801 38.1528 28.4554C37.3436 29.1307 36.323 29.5005 35.269 29.5H13.5246L14.3428 34H34.5C35.4559 33.9995 36.3871 34.3033 37.1588 34.8673C37.9305 35.4314 38.5027 36.2264 38.7925 37.1373C39.0823 38.0481 39.0746 39.0276 38.7707 39.9338C38.4667 40.8401 37.8822 41.6261 37.1018 42.178C36.3214 42.7299 35.3855 43.0191 34.4298 43.0038C33.474 42.9884 32.548 42.6692 31.7857 42.0925C31.0235 41.5158 30.4645 40.7114 30.1899 39.7958C29.9152 38.8803 29.9391 37.9011 30.258 37H19.242C19.5063 37.7448 19.5698 38.5461 19.4262 39.3232C19.2825 40.1003 18.9368 40.826 18.4237 41.4271C17.9106 42.0282 17.2483 42.4836 16.5033 42.7474C15.7584 43.0113 14.9571 43.0744 14.18 42.9303C13.403 42.7862 12.6775 42.44 12.0767 41.9266C11.4759 41.4132 11.0209 40.7506 10.7574 40.0055C10.494 39.2604 10.4314 38.4591 10.5759 37.6821C10.7204 36.9051 11.067 36.1799 11.5808 35.5794L6.38452 7H3C2.60218 7 2.22064 6.84197 1.93934 6.56066C1.65804 6.27936 1.5 5.89783 1.5 5.5C1.5 5.10218 1.65804 4.72064 1.93934 4.43934C2.22064 4.15804 2.60218 4 3 4H6.38452C7.08719 3.99969 7.76764 4.24616 8.30711 4.69639C8.84659 5.14663 9.2108 5.77202 9.33619 6.46341L10.2519 11.5H40.5C40.7197 11.5 40.9367 11.5483 41.1357 11.6414C41.3347 11.7345 41.5108 11.8702 41.6516 12.0389C41.7924 12.2076 41.8944 12.4051 41.9504 12.6176C42.0064 12.83 42.0151 13.0522 41.9758 13.2683Z" fill="#335CAB"/>
</svg>
