<svg width="48" height="48" viewBox="0 0 48 48" fill="none" xmlns="http://www.w3.org/2000/svg">
<path d="M28 34.5H8C5.79086 34.5 4 32.7091 4 30.5V10C4 7.79086 5.79086 6 8 6H37C39.2091 6 41 7.79086 41 10V17" stroke="#335CAB" stroke-width="3" stroke-linecap="round"/>
<path d="M10 30H25.2769C26.148 30 26.8009 29.2698 26.8085 28.4451C26.8738 21.3732 31.8576 18.3861 35.3055 17.5039C35.9761 17.3323 36.5 16.7375 36.5 16.003V12C36.5 11.1716 35.8284 10.5 35 10.5H10C9.17157 10.5 8.5 11.1716 8.5 12V28.5C8.5 29.3284 9.17157 30 10 30Z" fill="#335CAB" stroke="#335CAB" stroke-linecap="round"/>
<rect x="11" y="14" width="16" height="2" rx="1" fill="white"/>
<rect x="11" y="19" width="10" height="2" rx="1" fill="white"/>
<rect x="11" y="24" width="13" height="2" rx="1" fill="white"/>
<path d="M37.9995 33.25C40.8989 33.25 43.2495 30.8995 43.2495 28C43.2495 25.1005 40.8989 22.75 37.9995 22.75C35.1 22.75 32.7495 25.1005 32.7495 28C32.7495 30.8995 35.1 33.25 37.9995 33.25Z" fill="#335CAB"/>
<path d="M37.9995 19.75C36.3007 19.7493 34.6432 20.2733 33.2535 21.2503C31.8638 22.2272 30.8097 23.6095 30.2352 25.2082C29.6608 26.8069 29.5941 28.544 30.0442 30.182C30.4943 31.82 31.4393 33.2791 32.75 34.3598V41.5C32.75 41.6279 32.7827 41.7536 32.8449 41.8653C32.9072 41.9769 32.9969 42.0708 33.1057 42.138C33.2145 42.2053 33.3386 42.2435 33.4663 42.2493C33.594 42.255 33.7211 42.228 33.8354 42.1708L37.9994 40.0885L42.1646 42.1709C42.279 42.228 42.406 42.255 42.5338 42.2492C42.6615 42.2435 42.7856 42.2052 42.8943 42.138C43.0031 42.0708 43.0928 41.9769 43.1551 41.8652C43.2173 41.7536 43.25 41.6278 43.25 41.5V34.3588C44.5604 33.278 45.5051 31.8189 45.955 30.181C46.4048 28.543 46.3379 26.806 45.7634 25.2075C45.1889 23.609 44.1348 22.2269 42.7451 21.2501C41.3555 20.2732 39.6981 19.7493 37.9995 19.75ZM37.9995 34.75C36.6644 34.75 35.3594 34.3541 34.2494 33.6124C33.1393 32.8707 32.2742 31.8165 31.7633 30.5831C31.2524 29.3497 31.1187 27.9925 31.3792 26.6831C31.6396 25.3738 32.2825 24.171 33.2265 23.227C34.1705 22.283 35.3732 21.6402 36.6826 21.3797C37.992 21.1192 39.3492 21.2529 40.5826 21.7638C41.816 22.2747 42.8702 23.1399 43.6119 24.2499C44.3536 25.3599 44.7495 26.665 44.7495 28C44.7474 29.7896 44.0356 31.5053 42.7702 32.7707C41.5048 34.0362 39.789 34.748 37.9995 34.75Z" fill="#335CAB" stroke="#335CAB"/>
</svg>
